<svg width="18" height="12" viewBox="0 0 18 12" fill="none" xmlns="http://www.w3.org/2000/svg">
    <path
        d="M3.7998 6.99999L6.6998 9.89999C6.88314 10.0833 6.9748 10.3167 6.9748 10.6C6.9748 10.8833 6.88314 11.1167 6.6998 11.3C6.51647 11.4833 6.28314 11.575 5.9998 11.575C5.71647 11.575 5.48314 11.4833 5.2998 11.3L0.699805 6.69999C0.599805 6.59999 0.528971 6.49165 0.487305 6.37499C0.445638 6.25832 0.424805 6.13332 0.424805 5.99999C0.424805 5.86665 0.445638 5.74165 0.487305 5.62499C0.528971 5.50832 0.599805 5.39999 0.699805 5.29999L5.2998 0.699988C5.48314 0.516654 5.71647 0.424988 5.9998 0.424988C6.28314 0.424988 6.51647 0.516654 6.6998 0.699988C6.88314 0.883321 6.9748 1.11665 6.9748 1.39999C6.9748 1.68332 6.88314 1.91665 6.6998 2.09999L3.7998 4.99999H15.9998V1.99999C15.9998 1.71665 16.0956 1.47915 16.2873 1.28749C16.479 1.09582 16.7165 0.999988 16.9998 0.999988C17.2831 0.999988 17.5206 1.09582 17.7123 1.28749C17.904 1.47915 17.9998 1.71665 17.9998 1.99999V4.99999C17.9998 5.54999 17.804 6.02082 17.4123 6.41249C17.0206 6.80415 16.5498 6.99999 15.9998 6.99999H3.7998Z"
        fill="currentColor" />
</svg>